# xmcd
#
# Track frame offsets: 
#        150
#        22365
#        39081
#        57304
#        73780
#        98468
#        115880
#        134235
#        148707
#        164146
#        186573
#        201793
#        223160
#        241188
#        259585
#        276129
#
# Disc length: 3922 seconds
#
# Revision: 1
# Processed by: cddbd v1.5.2PL0 Copyright (c) Steve Scherf et al.
# Submitted via: ExactAudioCopyFreeDBPlugin 1.0
#
DISCID=010f5010
DTITLE=Taylor Swift - Red
DYEAR=2012
DGENRE=Country
TTITLE0=State Of Grace
TTITLE1=Red
TTITLE2=Treacherous
TTITLE3=I Knew You Were Trouble
TTITLE4=All Too Well
TTITLE5=22
TTITLE6=I Almost Do
TTITLE7=We Are Never Ever Getting Back Together
TTITLE8=Stay Stay Stay
TTITLE9=The Last Time (feat. Gary Lightbody - Snow Patrol)
TTITLE10=Holy Ground
TTITLE11=Sad Beautiful Tragic
TTITLE12=The Lucky One
TTITLE13=Everything Has Changed (feat. Ed Sheeran)
TTITLE14=Starlight
TTITLE15=Begin Again
EXTD=
EXTT0=
EXTT1=
EXTT2=
EXTT3=
EXTT4=
EXTT5=
EXTT6=
EXTT7=
EXTT8=
EXTT9=
EXTT10=
EXTT11=
EXTT12=
EXTT13=
EXTT14=
EXTT15=
PLAYORDER=
